<svg xmlns="http://www.w3.org/2000/svg" viewBox="1037 6604 15.277 14.598"><defs><style>.a{fill:#0474e1;}</style></defs><g transform="translate(1471 6696.442)"><path class="a" d="M15.277,18.508v5.648H12v-5.27c0-1.324-.474-2.227-1.659-2.227a1.792,1.792,0,0,0-1.68,1.2,3.635,3.635,0,0,0-.109.8v5.5H5.28s.044-8.925,0-9.85H8.555v1.4l-.022.032h.022V15.7a3.252,3.252,0,0,1,2.952-1.628C13.661,14.075,15.277,15.482,15.277,18.508ZM1.853,9.558a1.707,1.707,0,1,0-.043,3.4h.022a1.707,1.707,0,1,0,.022-3.4ZM.195,24.156H3.469v-9.85H.195Z" transform="translate(-434 -102)"/></g></svg>