<svg xmlns="http://www.w3.org/2000/svg" viewBox="0 0 31.855 22.542">
  <defs>
    <style>
      .cls-1 {
        fill: #7e7d7f;
      }
    </style>
  </defs>
  <path id="youtube" class="cls-1" d="M25.239,67.393H6.616A6.616,6.616,0,0,0,0,74.009v9.31a6.616,6.616,0,0,0,6.616,6.616H25.239a6.616,6.616,0,0,0,6.616-6.616v-9.31A6.616,6.616,0,0,0,25.239,67.393ZM20.765,79.117l-8.711,4.154a.35.35,0,0,1-.5-.316V74.387a.35.35,0,0,1,.508-.312l8.711,4.414A.35.35,0,0,1,20.765,79.117Z" transform="translate(0 -67.393)"/>
</svg>
