<svg xmlns="http://www.w3.org/2000/svg" viewBox="0 0 55.959 28.434"><defs><style>.a{fill:red;fill-rule:evenodd;}</style></defs><path class="a" d="M45.837,48.082,41.417,63.07,37.439,48.082H25.3v4.366h0C23.56,50.032,21.438,47.5,14.69,47.5S2.343,51.429,2.343,57.512h8.28a3.265,3.265,0,0,1,3.507-3.231c1.856,0,3.389.466,3.389,1.95a2.319,2.319,0,0,1-1.8,2.416H11.3v5.3h3.035A2.548,2.548,0,0,1,16.9,66.592c0,1.048-.354,2.648-3.153,2.648s-4.067-2.3-3.978-4.6H1.4c0,4.948,2.917,11.292,12.347,11.292s10.52-4.278,11.551-4.511h0v3.609h8.28V60.509l3.831,14.523h7.485l4.067-14.523V75.032h8.4V48.082ZM25.3,63.1a5.442,5.442,0,0,0-2.5-2.125,3.884,3.884,0,0,0,2.5-2.5h0V63.1Z" transform="translate(-1.4 -47.5)"/></svg>