<svg xmlns="http://www.w3.org/2000/svg" viewBox="0 0 96.212 31.195"><defs><style>.a{fill:red;}</style></defs><g transform="translate(0.196 -0.017)"><g transform="translate(-0.196 0.017)"><path class="a" d="M2.675,13.094C5.415,8.011,10.188,2.443,15.845.587c1.149-.309,2.7-.619,3.712.177a2.767,2.767,0,0,1,.84,2.873c-.265,1.237-1.1,2.784-2.519,3.005a.742.742,0,0,1-.619-.265,1.437,1.437,0,0,1-.265-1.326A2.921,2.921,0,0,1,19.16,2.885a.474.474,0,0,0,.044-.53.834.834,0,0,0-.575-.442A4.171,4.171,0,0,0,15.8,3.062a34.617,34.617,0,0,0-7.69,9.414A26.945,26.945,0,0,0,4.664,22.2c-.221,2.563.619,5.082,2.917,6.32,2.475,1.326,5.7.442,8.176-.265l2.3-.707L22.43,26.22c4.154-1.237,9.369-1.5,13.435.133a13.741,13.741,0,0,1,6.585,4.862c0,.044,0,.133-.088.133-3.491-.972-8.044-1.9-11.491-.221l-.177-.044a6.922,6.922,0,0,0-4.641-2.961c-5.878-.575-10.7,2.21-16.176,2.917-2.784.265-5.79.177-7.734-1.989C-.949,26-.551,20.563.907,16.851,1.438,15.613,2.056,14.331,2.675,13.094Z" transform="translate(0.196 -0.152)"/><path class="a" d="M22.511,24.59c1.458-2.652,3.712-5.922,6.806-6.895a2.71,2.71,0,0,1,2.342.442c1.326,1.326.8,3.58.354,5.171a.294.294,0,0,0,.177.221A4.477,4.477,0,0,0,35.2,22.115c1.812-2.033,3.8-4.729,6.762-4.42a1.949,1.949,0,0,1,1.414.928c.751,1.5,0,3.138-1.016,4.331a1.424,1.424,0,0,1-1.458.486.956.956,0,0,1-.486-.53,2.5,2.5,0,0,1,1.237-2.563c.221-.221.972-.088.8-.619-.133-.221-.4-.221-.619-.265-1.458.619-2.387,2.077-3.226,3.315a21.481,21.481,0,0,0-2.475,5.3,3.044,3.044,0,0,0,.044,2.166,1.176,1.176,0,0,0,1.282.442,11.388,11.388,0,0,0,3.8-2.917c2.519-3.005,3.845-6.718,7.2-9.193,1.061-.707,2.519-1.282,3.757-.619.221.088.354.354.619.265.221-.221.354-.619.751-.53.928,0,1.989-.044,2.961.044l.044.088-.265.663L51.106,29.1a.228.228,0,0,0-.133.309.338.338,0,0,0,.4.088,7.587,7.587,0,0,0,1.856-1.9,11.3,11.3,0,0,0,1.193-1.989c.133-.221.309-.442.575-.4.309.044.663-.088.884.133a19.613,19.613,0,0,1-1.326,2.519c-1.414,2.166-3.27,4.729-5.878,5.348a1.587,1.587,0,0,1-1.282-.221,2.466,2.466,0,0,1-.663-1.547.194.194,0,0,0-.221-.044c-1.1,1.016-2.254,1.989-3.8,1.812a1.729,1.729,0,0,1-1.149-.928,5.92,5.92,0,0,1-.221-2.652c-.044-.088-.177-.044-.221-.044-1.679,1.679-3.536,3.182-5.79,3.58a2.944,2.944,0,0,1-2.652-.928c-1.679-2.21-.354-5.082.53-7.248a.177.177,0,0,0-.088-.265c-.619.044-1.193.133-1.768.221l-.221.221c-1.37,2.519-2.829,5.215-5.3,7.115a3.569,3.569,0,0,1-3.712.575c-1.237-.84-1.37-2.387-1.193-3.8A23.373,23.373,0,0,1,22.511,24.59Zm3.889-.133a10.6,10.6,0,0,0-1.458,4.6c.088.309.265.707.619.8a1.1,1.1,0,0,0,.972-.309,13.731,13.731,0,0,0,3.182-4.331c.044-.133.177-.354.088-.486a6.861,6.861,0,0,1-2.3-1.635h-.133c-.133.044-.177.133-.265.221Zm2.21-2.917a2.191,2.191,0,0,0,1.414,1.679c.177.044.442.177.575-.044a6.4,6.4,0,0,0,.53-1.547c.133-.707.221-1.635-.442-2.077a1,1,0,0,0-.8-.044A2.24,2.24,0,0,0,28.61,21.541Zm17.148,5.922a3.528,3.528,0,0,0-.265,2.033c.044.133.221.221.354.265.575,0,.972-.486,1.326-.928a41.411,41.411,0,0,0,4.11-7.336,5.019,5.019,0,0,0,.486-1.635c0-.133-.133-.221-.221-.265-.265-.133-.486.044-.707.177-2.254,1.724-3.447,4.2-4.6,6.585Z" transform="translate(-11.552 -9.836)"/><path class="a" d="M101.7,20.97a26.986,26.986,0,0,1,1.547-2.961,1.591,1.591,0,0,1,.972-.309l2.519.044.088.088c-.442,1.016-.884,1.989-1.414,2.961a.974.974,0,0,1-.707.53c-1.017,0-2.077.088-3.05,0C101.564,21.236,101.652,21.1,101.7,20.97Z" transform="translate(-56.619 -9.885)"/><path class="a" d="M104.7,16.185a37.723,37.723,0,0,1,6.806-10.121c2.873-2.873,6.011-5.215,9.767-5.922a3.7,3.7,0,0,1,2.961.663.483.483,0,0,0,.53.177c2.7-1.061,6.453-1.458,9.193-.088a47.359,47.359,0,0,1,4.552,2.7c.177.088.088.309,0,.4-.884.972-1.591,1.945-2.387,2.961-.088.088-.221.044-.309,0l-3.978-2.74a8.7,8.7,0,0,0-6.408-1.768c-.265.133-.133.486-.177.707a12.337,12.337,0,0,1-2.033,6.629c-.972,1.37-2.077,2.829-3.712,3.27a1.815,1.815,0,0,1-1.812-.619c-1.193-1.812-.133-4.022.751-5.613a15.563,15.563,0,0,1,4.2-4.641c.044-.044.133-.133.044-.221-.177-.177-.442-.044-.663-.044-2.7.884-4.862,3.315-6.85,5.569a40.98,40.98,0,0,0-7.823,14.408c-.486,1.945-1.1,4.994.884,6.364,1.768.928,3.447-.265,4.773-1.414a14.146,14.146,0,0,0,3.933-7.071c.088-.8.309-1.9-.442-2.431-.663-.309-1.193.265-1.635.707a8.017,8.017,0,0,0-1.635,4.331,17.484,17.484,0,0,1-1.5.972,12.816,12.816,0,0,0-2.563,2.342c-.088.044-.088-.088-.133-.133a12.254,12.254,0,0,1,2.563-7.734c1.282-1.5,2.961-2.784,4.95-2.3a2.529,2.529,0,0,1,1.635,1.989c.309,2.784-.84,5.171-2.077,7.425-2.033,3.182-5.215,6.364-9.237,5.966a4.327,4.327,0,0,1-3.624-2.608c-1.5-3.05-.486-6.939.575-9.9Zm13.7-5.215a.937.937,0,0,0,.53.84c.663.177,1.237-.309,1.724-.707a11.565,11.565,0,0,0,3.226-6.762c0-.4.133-.884-.088-1.193a.581.581,0,0,0-.442.133,13.161,13.161,0,0,0-3.226,3.226A8.551,8.551,0,0,0,118.4,10.97Z" transform="translate(-57.103 -0.017)"/><path class="a" d="M140.115,19.667c1.458-1.945,3.4-4.066,5.878-4.2a1.868,1.868,0,0,1,1.547.8c1.061,1.547.177,3.536-.221,5.127-.044.133.044.221.177.265a2.663,2.663,0,0,0,1.547-.221l.177-.221a59.9,59.9,0,0,1,7.513-14.187c1.945-2.563,4.464-5.259,7.336-6.5.707-.221,1.679-.53,2.342,0,.751.619.53,1.635.354,2.431-.088.707-.884.8-1.37.928-.044,0-.044,0-.088-.044a8.484,8.484,0,0,1,.354-1.326,1.137,1.137,0,0,0-.044-.663c-.133-.221-.4-.133-.575-.088a9.171,9.171,0,0,0-2.519,2.21A54.316,54.316,0,0,0,155.8,14.5c-.619,1.282-1.237,2.519-1.768,3.845,0,.088,0,.133.088.177.442,0,.707-.442,1.017-.663a45.376,45.376,0,0,0,6.32-7.425,4.166,4.166,0,0,1,1.326-.221l.088.044c-.044.354-.354.619-.486.928a49.642,49.642,0,0,1-7.248,8.4l-2.077,1.679c-.442.4-.442.972-.663,1.458a15.848,15.848,0,0,0-.84,4.066.717.717,0,0,0,.309.619c.53.221.972-.265,1.37-.619,2.784-3.226,4.022-7.16,7.425-10.077,1.1-.884,2.608-1.635,4.022-.972.265.088.442.442.751.265.221-.133.221-.486.53-.486,1.016,0,2.077-.044,3.049.044.088.088.044.221,0,.309l-.707,1.414L164.025,25.9a3.208,3.208,0,0,0-.442,1.237c.044.177.265.221.442.177a6.491,6.491,0,0,0,1.9-1.9c.53-.751.928-1.5,1.458-2.254a1.643,1.643,0,0,1,.928-.044c.177.177-.044.4-.088.575-1.237,2.608-3.005,5.436-5.745,6.85a2.441,2.441,0,0,1-2.21.221c-.575-.4-.486-1.061-.751-1.635-.044-.088-.177-.044-.221-.044-1.149,1.016-2.342,2.166-3.933,1.724-.972-.442-1.1-1.591-1.193-2.563-.044-.044-.044-.133-.088-.133l-.133.044c-1.1,1.326-2.519,3.005-4.375,2.829a2.033,2.033,0,0,1-1.547-1.37c-.663-2.077.044-4.331.486-6.32a.237.237,0,0,0-.221-.221h-1.547l-.265.309a22.415,22.415,0,0,1-4.42,6.32,4.092,4.092,0,0,1-3.757,1.282,3.015,3.015,0,0,1-1.5-3.005A17.05,17.05,0,0,1,140.115,19.667Zm.4,6.895a1.071,1.071,0,0,0,.663,1.017,1.5,1.5,0,0,0,.884-.133,11.969,11.969,0,0,0,3.138-4.287c.088-.133.133-.4-.044-.486a8.272,8.272,0,0,1-2.121-1.635.272.272,0,0,0-.309-.044,13.509,13.509,0,0,0-1.282,2.342A8.02,8.02,0,0,0,140.512,26.561Zm3.712-7.115a2.123,2.123,0,0,0,1.37,1.768c.133.044.4.133.486-.044a5.525,5.525,0,0,0,.619-3.27.871.871,0,0,0-1.37-.486A2.308,2.308,0,0,0,144.225,19.446Zm13.966,6.762c-.044.354-.133.84.177,1.1a.542.542,0,0,0,.575.088,5.2,5.2,0,0,0,1.679-1.856,43.961,43.961,0,0,0,3.712-7.513c.044-.221.088-.53-.133-.707-.619-.309-1.1.4-1.547.707a19.737,19.737,0,0,0-4.11,6.895Z" transform="translate(-76.254 -0.14)"/><path class="a" d="M190.479,7.271l1.37-1.768.221-.177c3.889-.088,6.983-2.387,9.723-5.127a3.219,3.219,0,0,1-.309,1.061C199.672,5.5,195.3,9.216,190.568,9.3h-1.1c-.221-.044-.044-.265,0-.354Z" transform="translate(-105.581 -0.119)"/></g></g></svg>