<svg xmlns="http://www.w3.org/2000/svg" viewBox="0 0 93.524 21.853"><defs><style>.a{fill:#59029f;}</style></defs><path class="a" d="M59.6,3.321V21c0,.366.173.537.519.537H63.9A.474.474,0,0,0,64.424,21V15.383h3.659c4.722,0,7.664-2.857,7.664-7.5,0-4.517-2.868-7.472-7.664-7.472H62.545A2.6,2.6,0,0,0,59.6,3.321m4.771,7.642v-6.2h2.991c2.25,0,3.387,1.026,3.387,3.1s-1.137,3.1-3.387,3.1ZM46.7,4.493c2.546,0,3.807,1.319,3.807,3.956V13.4c0,2.637-1.261,3.956-3.807,3.956s-3.807-1.319-3.807-3.956V8.448c0-2.637,1.261-3.956,3.807-3.956m0,17.36c5.513,0,8.7-3.077,8.7-8.351V8.351C55.4,3.052,52.211,0,46.7,0S38,3.077,38,8.351V13.5c0,5.3,3.189,8.351,8.7,8.351m-38.566,0c5.389,0,8.158-2.686,8.158-6.715,0-3.1-1.508-5.469-6.428-6.3C5.784,8.155,5.215,7.423,5.215,6.177c0-.952.865-1.929,3.263-1.929a10.643,10.643,0,0,1,4.672,1.245.507.507,0,0,0,.742-.147l1.533-2.857c.173-.317.124-.586-.124-.733A13.735,13.735,0,0,0,8.256,0C3.732,0,.32,2.442.32,6.446c0,3.956,2.744,5.616,7.441,6.47,2.794.513,3.684,1.026,3.684,2.491,0,1.245-1.187,2.075-3.436,2.075a13.047,13.047,0,0,1-5.686-1.489c-.3-.147-.569-.147-.717.146L.122,18.972c-.148.293-.222.537.124.733a15.193,15.193,0,0,0,7.886,2.149M28.33,0c-5.513,0-8.7,3.077-8.7,8.351V13.5c0,5.3,3.214,8.351,8.7,8.351a11.757,11.757,0,0,0,6.8-2.1.418.418,0,0,0,.025-.659l-1.9-2.832c-.173-.293-.42-.317-.717-.122a7.4,7.4,0,0,1-4.178,1.221c-2.447,0-3.684-1.319-3.684-3.956V8.448c0-2.637,1.261-3.956,3.684-3.956a7.159,7.159,0,0,1,3.832,1.074.507.507,0,0,0,.742-.147l1.879-2.832a.418.418,0,0,0-.148-.684A11.286,11.286,0,0,0,28.33,0M79.282,18.581a2.636,2.636,0,0,0,2.967,2.93H92.978a.481.481,0,0,0,.544-.537V17.727a.474.474,0,0,0-.544-.513H84.1V13.039h7.417c.371,0,.544-.171.544-.513v-3.2a.474.474,0,0,0-.544-.513H84.1V4.664h8.405a.474.474,0,0,0,.544-.513V.928c0-.366-.173-.537-.544-.537H82.249a2.647,2.647,0,0,0-2.967,2.93Z" transform="translate(0.002 0)"/></svg>