<svg xmlns="http://www.w3.org/2000/svg" width="93.55" height="21.88" viewBox="0 0 93.55 21.88"><defs><style>.a{fill:#59029f;}</style></defs><title>scope</title><path class="a" d="M59.6,3.32V21c0,.37.17.54.52.54H63.9a.48.48,0,0,0,.53-.42V15.38h3.66c4.72,0,7.66-2.85,7.66-7.5S72.88.41,68.09.41H62.55a2.6,2.6,0,0,0-2.94,2.21h0a2.73,2.73,0,0,0,0,.7M64.37,11V4.76h3c2.25,0,3.39,1,3.39,3.1S69.61,11,67.36,11ZM46.7,4.49c2.55,0,3.81,1.32,3.81,4v5c0,2.64-1.26,4-3.81,4s-3.8-1.32-3.8-4v-5c0-2.64,1.26-4,3.8-4m0,17.36c5.52,0,8.7-3.07,8.7-8.35V8.35C55.4,3.05,52.21,0,46.7,0S38,3.08,38,8.35V13.5c0,5.3,3.19,8.35,8.7,8.35m-38.56,0c5.38,0,8.15-2.69,8.15-6.71,0-3.1-1.5-5.47-6.42-6.3C5.79,8.15,5.22,7.42,5.22,6.18c0-1,.86-1.93,3.26-1.93a10.73,10.73,0,0,1,4.67,1.24.5.5,0,0,0,.7-.09h0L15.4,2.53c.17-.32.12-.59-.13-.73a13.65,13.65,0,0,0-7-1.8C3.73,0,.32,2.44.32,6.45s2.75,5.61,7.44,6.47c2.8.51,3.69,1,3.69,2.49,0,1.24-1.19,2.07-3.44,2.07A13,13,0,0,1,2.32,16c-.29-.14-.56-.14-.71.15L.12,19c-.14.29-.22.54.13.73a15.09,15.09,0,0,0,7.88,2.15M28.33,0c-5.51,0-8.7,3.08-8.7,8.35V13.5c0,5.3,3.22,8.35,8.7,8.35a11.71,11.71,0,0,0,6.8-2.1.42.42,0,0,0,.1-.58l-.07-.08-1.9-2.83c-.18-.29-.42-.32-.72-.12a7.48,7.48,0,0,1-4.18,1.22c-2.44,0-3.68-1.32-3.68-4v-5c0-2.64,1.26-4,3.68-4a7.12,7.12,0,0,1,3.83,1.08.52.52,0,0,0,.71-.1h0l1.88-2.83a.41.41,0,0,0,0-.58h0a.45.45,0,0,0-.14-.1A11.3,11.3,0,0,0,28.33,0m51,18.58a2.65,2.65,0,0,0,2.3,2.94,2.51,2.51,0,0,0,.67,0H93a.48.48,0,0,0,.54-.41.29.29,0,0,0,0-.13V17.73a.47.47,0,0,0-.41-.52h-9V13h7.42c.37,0,.54-.17.54-.51V9.33a.47.47,0,0,0-.41-.52H84.1V4.66h8.41a.47.47,0,0,0,.54-.39h0V.93a.47.47,0,0,0-.39-.54.38.38,0,0,0-.15,0H82.25a2.64,2.64,0,0,0-3,2.23v.06a2.29,2.29,0,0,0,0,.64Z" transform="translate(0 0)"/></svg>