<svg xmlns="http://www.w3.org/2000/svg" width="56" height="28.45" viewBox="0 0 56 28.45"><defs><style>.a{fill:red;}</style></defs><title>3m</title><path class="a" d="M44.44.58,40,15.57l-4-15H23.9V5h0C22.16,2.53,20,0,13.29,0S.94,3.93.94,10H9.22a3.28,3.28,0,0,1,3.29-3.24h.22c1.86,0,3.39.47,3.39,2a2.34,2.34,0,0,1-1.8,2.42H9.9v5.3h3A2.55,2.55,0,0,1,15.5,19v.13c0,1.05-.35,2.65-3.15,2.65s-4.07-2.3-4-4.6H0c0,4.95,2.92,11.29,12.35,11.29s10.52-4.28,11.55-4.51h0v3.61h8.28V13L36,27.53h7.48L47.56,13V27.53H56V.58ZM23.9,15.6a5.46,5.46,0,0,0-2.5-2.13A3.85,3.85,0,0,0,23.9,11h0Z"/></svg>