<svg xmlns="http://www.w3.org/2000/svg" width="96.21" height="31.2" viewBox="0 0 96.21 31.2"><defs><style>.a{fill:red;}</style></defs><title>coca_cola</title><path class="a" d="M2.87,12.94C5.61,7.86,10.38,2.29,16,.44c1.15-.31,2.7-.62,3.71.17a2.75,2.75,0,0,1,.84,2.87c-.26,1.24-1.1,2.79-2.52,3a.73.73,0,0,1-.62-.26,1.45,1.45,0,0,1-.26-1.33,3,3,0,0,1,2.17-2.17.47.47,0,0,0,0-.53.84.84,0,0,0-.58-.44A4.13,4.13,0,0,0,16,2.91a34.57,34.57,0,0,0-7.69,9.41,26.8,26.8,0,0,0-3.45,9.73c-.22,2.56.62,5.08,2.92,6.32,2.47,1.32,5.7.44,8.17-.27l2.3-.7,4.38-1.33c4.15-1.24,9.36-1.5,13.43.13a13.79,13.79,0,0,1,6.59,4.86c0,.05,0,.14-.09.14-3.49-1-8.05-1.9-11.49-.23h-.18a6.9,6.9,0,0,0-4.64-3c-5.88-.58-10.7,2.21-16.18,2.92-2.78.26-5.79.17-7.73-2-3.09-3-2.7-8.49-1.24-12.2C1.63,15.46,2.25,14.18,2.87,12.94Z" transform="translate(0 0)"/><path class="a" d="M11,14.75c1.46-2.65,3.71-5.92,6.8-6.89a2.74,2.74,0,0,1,2.35.44c1.32,1.33.8,3.58.35,5.17a.31.31,0,0,0,.18.22,4.47,4.47,0,0,0,3-1.41c1.81-2,3.8-4.73,6.76-4.42a1.93,1.93,0,0,1,1.41.93c.76,1.5,0,3.13-1,4.33a1.42,1.42,0,0,1-1.46.48,1,1,0,0,1-.49-.53,2.51,2.51,0,0,1,1.24-2.56c.22-.22,1-.09.8-.62-.13-.22-.4-.22-.62-.26-1.46.62-2.38,2.07-3.22,3.31a21.19,21.19,0,0,0-2.48,5.3,3.06,3.06,0,0,0,.05,2.17,1.17,1.17,0,0,0,1.28.44,11.42,11.42,0,0,0,3.8-2.92c2.52-3,3.84-6.72,7.2-9.19a3.61,3.61,0,0,1,3.71-.62c.23.09.36.36.62.27s.36-.62.75-.53c.93,0,2-.05,3,0L45,8l-.27.66-5.18,10.6a.25.25,0,0,0-.14.29h0a.34.34,0,0,0,.4.09,7.46,7.46,0,0,0,1.86-1.9,12.27,12.27,0,0,0,1.19-2c.13-.22.31-.44.58-.4s.66-.09.88.13A17.37,17.37,0,0,1,43,18c-1.41,2.17-3.27,4.73-5.87,5.35a1.63,1.63,0,0,1-1.29-.22,2.48,2.48,0,0,1-.66-1.55.22.22,0,0,0-.22,0c-1.1,1-2.26,2-3.8,1.81A1.71,1.71,0,0,1,30,22.44a6,6,0,0,1-.22-2.65c0-.09-.18,0-.22,0C27.88,21.47,26,23,23.77,23.37a2.94,2.94,0,0,1-2.65-.93c-1.68-2.21-.36-5.08.53-7.25a.18.18,0,0,0,0-.24h0a11.12,11.12,0,0,0-1.77.22l-.22.22c-1.37,2.52-2.83,5.21-5.3,7.11a3.56,3.56,0,0,1-3.71.58c-1.24-.84-1.37-2.39-1.2-3.8A23.45,23.45,0,0,1,11,14.75Zm3.89-.13a10.68,10.68,0,0,0-1.46,4.6c.09.31.26.71.62.8a1.1,1.1,0,0,0,1-.31,13.57,13.57,0,0,0,3.18-4.33c.05-.13.18-.35.09-.48A6.9,6.9,0,0,1,16,13.26h-.13c-.14,0-.18.13-.27.22ZM17.1,11.7a2.15,2.15,0,0,0,1.41,1.68c.18,0,.44.18.58,0a6.45,6.45,0,0,0,.53-1.55c.13-.71.22-1.63-.44-2.07a1,1,0,0,0-.8,0,2.2,2.2,0,0,0-1.28,2Zm17.15,5.93a3.53,3.53,0,0,0-.27,2,.56.56,0,0,0,.36.26A1.81,1.81,0,0,0,35.66,19a41.27,41.27,0,0,0,4.11-7.34A5.14,5.14,0,0,0,40.22,10c0-.14-.14-.23-.22-.27-.27-.13-.49,0-.71.18-2.25,1.72-3.45,4.2-4.6,6.58Z" transform="translate(0 0)"/><path class="a" d="M45.08,11.08a30.37,30.37,0,0,1,1.55-3,1.63,1.63,0,0,1,1-.31l2.52.05.09.09c-.45,1-.89,2-1.42,3a1,1,0,0,1-.7.53c-1,0-2.08.09-3,0A.32.32,0,0,1,45.08,11.08Z" transform="translate(0 0)"/><path class="a" d="M47.6,16.17A37.62,37.62,0,0,1,54.4,6.05c2.88-2.88,6-5.22,9.77-5.93a3.7,3.7,0,0,1,3,.67A.49.49,0,0,0,67.7,1C70.36-.1,74.11-.49,76.85.88a45.52,45.52,0,0,1,4.56,2.7c.17.08.08.31,0,.4-.89,1-1.6,1.94-2.39,3-.09.09-.22,0-.31,0l-4-2.74A8.69,8.69,0,0,0,68.3,2.47c-.26.13-.13.49-.17.71a12.28,12.28,0,0,1-2,6.63c-1,1.37-2.07,2.82-3.71,3.27a1.83,1.83,0,0,1-1.81-.62c-1.19-1.82-.13-4,.75-5.62a15.65,15.65,0,0,1,4.2-4.64s.13-.13,0-.22-.44,0-.66,0c-2.7.88-4.86,3.31-6.85,5.57A40.9,40.9,0,0,0,50.23,22c-.49,1.95-1.1,5,.88,6.37,1.77.93,3.45-.27,4.78-1.42a14.17,14.17,0,0,0,3.93-7.07c.09-.8.31-1.9-.44-2.43-.67-.31-1.2.27-1.64.71a8,8,0,0,0-1.63,4.33c-.49.35-1,.67-1.5,1A12.74,12.74,0,0,0,52,25.79c-.08,0-.08-.09-.13-.14a12.27,12.27,0,0,1,2.56-7.73c1.29-1.5,3-2.79,5-2.3a2.52,2.52,0,0,1,1.64,2c.31,2.78-.84,5.17-2.08,7.42-2,3.18-5.21,6.37-9.24,6a4.34,4.34,0,0,1-3.62-2.61c-1.5-3.05-.49-6.94.58-9.9ZM61.3,11a.9.9,0,0,0,.53.84c.66.18,1.23-.31,1.72-.7a11.61,11.61,0,0,0,3.23-6.77c0-.4.13-.88-.09-1.19a.58.58,0,0,0-.44.13A13.09,13.09,0,0,0,63,6.49,8.5,8.5,0,0,0,61.3,11Z" transform="translate(0 0)"/><path class="a" d="M63.86,19.53c1.46-2,3.4-4.07,5.88-4.2a1.84,1.84,0,0,1,1.55.8c1.06,1.54.17,3.53-.22,5.12,0,.14,0,.23.17.27a2.74,2.74,0,0,0,1.55-.22l.18-.22A59.55,59.55,0,0,1,80.48,6.89c1.94-2.56,4.46-5.26,7.34-6.5.7-.22,1.67-.53,2.34,0s.53,1.63.35,2.43-.88.8-1.37.93h-.09a8.59,8.59,0,0,1,.36-1.32,1.06,1.06,0,0,0,0-.66c-.13-.23-.4-.14-.57-.09a8.89,8.89,0,0,0-2.52,2.21A54.45,54.45,0,0,0,79.6,14.41c-.62,1.28-1.24,2.52-1.77,3.84,0,.09,0,.14.09.18.44,0,.7-.44,1-.66a44.84,44.84,0,0,0,6.32-7.43,4.31,4.31,0,0,1,1.33-.22h.09c0,.35-.36.62-.49.92a48.79,48.79,0,0,1-7.25,8.4l-2.07,1.68c-.45.4-.45,1-.67,1.46a16.11,16.11,0,0,0-.84,4.07.72.72,0,0,0,.31.62c.53.22,1-.27,1.37-.62,2.79-3.23,4-7.16,7.43-10.08,1.1-.88,2.61-1.63,4-1,.26.09.44.44.75.26s.22-.48.53-.48c1,0,2.08,0,3,0,.09.09,0,.22,0,.31l-.71,1.41-4.28,8.62A3.26,3.26,0,0,0,87.33,27c0,.17.26.22.44.17a6.37,6.37,0,0,0,1.9-1.9c.53-.75.93-1.5,1.46-2.25a1.64,1.64,0,0,1,.93,0c.17.17,0,.4-.09.57-1.24,2.61-3,5.44-5.75,6.85a2.44,2.44,0,0,1-2.21.22c-.57-.4-.48-1.06-.75-1.63,0-.09-.17,0-.22,0-1.15,1-2.34,2.17-3.93,1.73-1-.45-1.1-1.59-1.19-2.57,0,0,0-.13-.09-.13l-.14.05c-1.1,1.32-2.51,3-4.37,2.82a2,2,0,0,1-1.55-1.37c-.66-2.07,0-4.33.49-6.32A.24.24,0,0,0,72,23H70.49l-.26.31a22.43,22.43,0,0,1-4.42,6.32,4.09,4.09,0,0,1-3.76,1.28,3,3,0,0,1-1.5-3A17,17,0,0,1,63.86,19.53Zm.4,6.89a1.08,1.08,0,0,0,.66,1,1.52,1.52,0,0,0,.89-.13A12.06,12.06,0,0,0,69,23c.08-.13.13-.4,0-.49a8,8,0,0,1-2.12-1.63.26.26,0,0,0-.31,0,14.07,14.07,0,0,0-1.28,2.35,8.08,8.08,0,0,0-.93,3.22ZM68,19.31a2.16,2.16,0,0,0,1.37,1.77c.14,0,.4.13.49,0a5.54,5.54,0,0,0,.62-3.27.88.88,0,0,0-1.06-.64.89.89,0,0,0-.31.15,2.3,2.3,0,0,0-1.11,2Zm14,6.76c0,.35-.13.84.18,1.1a.54.54,0,0,0,.57.09,5.26,5.26,0,0,0,1.68-1.86,44.42,44.42,0,0,0,3.71-7.51.71.71,0,0,0-.13-.71c-.62-.31-1.1.4-1.55.71a19.81,19.81,0,0,0-4.11,6.89Z" transform="translate(0 0)"/><path class="a" d="M84.9,7.15l1.37-1.77.22-.17c3.89-.09,7-2.39,9.72-5.13a3,3,0,0,1-.31,1.06c-1.81,4.24-6.18,8-10.91,8h-1.1c-.22,0,0-.26,0-.35Z" transform="translate(0 0)"/></svg>