<svg xmlns="http://www.w3.org/2000/svg" width="154.02" height="44.27" viewBox="0 0 154.02 44.27"><defs><style>.a{fill:#0b7dbc;}.b{fill:#85c556;}</style></defs><title>find_my_past</title><path class="a" d="M8.65,17.47H5.38v11.4H2.69V17.47H0V15.19H2.69V12.34a9.13,9.13,0,0,1,.19-2.27,4.28,4.28,0,0,1,1-1.52,5.15,5.15,0,0,1,1.5-1.33,4.1,4.1,0,0,1,2.31-.38A5.3,5.3,0,0,1,9.42,7L9.23,9.31c-.19,0-.39-.19-.58-.19H7.88a2.77,2.77,0,0,0-1.34.19c-.19.38-.58.57-.77.95a6.78,6.78,0,0,0-.19,1v4H8.85v2.28Z" transform="translate(0 0)"/><path class="a" d="M14.42,11.2a1.13,1.13,0,0,1-.57,1.14,1.62,1.62,0,0,1-1.16.57,1.71,1.71,0,0,1-1.34-.57,1.3,1.3,0,0,1-.58-1.14,1.71,1.71,0,0,1,.58-1.32,2.77,2.77,0,0,1,1.34-.38,2.79,2.79,0,0,1,1.16.38A1.67,1.67,0,0,1,14.42,11.2Z" transform="translate(0 0)"/><rect class="a" x="11.35" y="15.19" width="2.69" height="13.48"/><path class="a" d="M19,15.19v2.28h0a1.9,1.9,0,0,1,.77-.95,3.4,3.4,0,0,1,1-.76,10.57,10.57,0,0,1,1.34-.57A3.85,3.85,0,0,1,23.65,15a7.22,7.22,0,0,1,2.31.38,12.26,12.26,0,0,1,1.54,1.14,8.14,8.14,0,0,1,1,1.71,7.86,7.86,0,0,1,.38,2.09v8.36H26.15V21.27A3.56,3.56,0,0,0,26,19.75a2.7,2.7,0,0,0-.38-1.33,2.41,2.41,0,0,0-1-1A4.89,4.89,0,0,0,22.89,17a3.52,3.52,0,0,0-2.69,1.14,4.31,4.31,0,0,0-1,3.23v7.22H16.54V15.38H19Z" transform="translate(0 0)"/><path class="a" d="M42.11,26.59A5.09,5.09,0,0,1,40,28.49a8,8,0,0,1-2.89.57,7.12,7.12,0,0,1-2.88-.57A8.72,8.72,0,0,1,32.11,27a4.54,4.54,0,0,1-1.34-2.28,7.32,7.32,0,0,1,0-5.7,6.53,6.53,0,0,1,1.34-2.27,8.64,8.64,0,0,1,2.12-1.52,6.35,6.35,0,0,1,2.88-.57,4.7,4.7,0,0,1,2.89.76,4.14,4.14,0,0,1,1.92,1.71h0V7.22h2.69V28.68h-2.3ZM33.27,22a3.67,3.67,0,0,0,.38,1.9,4.28,4.28,0,0,0,1,1.52A8.34,8.34,0,0,0,36,26.59a5,5,0,0,0,3.84,0,4,4,0,0,0,1.54-1.14,4,4,0,0,0,1-1.52,5.65,5.65,0,0,0,.39-1.9,6.84,6.84,0,0,0-.39-1.9,4,4,0,0,0-1-1.52,12.26,12.26,0,0,0-1.54-1.14,8.35,8.35,0,0,0-2.11-.38,6,6,0,0,0-1.92.38,2.58,2.58,0,0,0-1.35,1.15,4,4,0,0,0-1,1.52A5.56,5.56,0,0,0,33.27,22Z" transform="translate(0 0)"/><path class="a" d="M55.38,15.57a4.51,4.51,0,0,1,2.69-.76,5.55,5.55,0,0,1,2.5.57,3.92,3.92,0,0,1,1.73,2.09,5.05,5.05,0,0,1,1.93-2.09,6.36,6.36,0,0,1,2.69-.76,7.22,7.22,0,0,1,2.31.38,12.15,12.15,0,0,1,1.53,1.14,7.16,7.16,0,0,1,1,1.71,7.43,7.43,0,0,1,.39,2.09V28.3H69.42V20.89a3.75,3.75,0,0,0-.19-1.52c-.2-.57-.2-.95-.58-1.33a2.35,2.35,0,0,0-1-.95c-.19.19-.58,0-1.35,0a3.93,3.93,0,0,0-1.54.38,5.24,5.24,0,0,0-1.15,1A4.14,4.14,0,0,0,63,19.8a4.13,4.13,0,0,0-.19,1.52v7.22H60.19v-8A4.24,4.24,0,0,0,60,19c-.2-.38-.2-.76-.58-1.14a1.94,1.94,0,0,0-1-.76c-.19.19-.58,0-1.16,0a3.18,3.18,0,0,0-2.5,1.14,5.4,5.4,0,0,0-1,3.23v7.22H51.15V15.38h2.5v2.28h0A10.18,10.18,0,0,1,55.38,15.57Z" transform="translate(0 0)"/><path class="a" d="M80.19,25.83h0L84,15.19h2.89l-6.7,16.72a12.75,12.75,0,0,1-.77,1.52,5.18,5.18,0,0,1-1,1.14,3.18,3.18,0,0,1-1.35.76,5.61,5.61,0,0,1-1.73.19h-1a1.75,1.75,0,0,1-1-.19l.19-2.28a3.43,3.43,0,0,0,1.35.19,1.9,1.9,0,0,0,1.53-.57,6.24,6.24,0,0,0,1-1.71l1-2.28L73.07,15.19h3.08Z" transform="translate(0 0)"/><path class="a" d="M94.22,35.51H91.53V15.19h2.69v2.09h0a4.33,4.33,0,0,1,1.93-1.71A7.28,7.28,0,0,1,99,14.81a6.22,6.22,0,0,1,2.69.57,8.84,8.84,0,0,1,2.12,1.52,4.67,4.67,0,0,1,1.35,2.28,6.82,6.82,0,0,1,.57,2.85,7.51,7.51,0,0,1-.57,2.85,6.6,6.6,0,0,1-1.35,2.28,8.84,8.84,0,0,1-2.12,1.52,6.48,6.48,0,0,1-2.88.57,6.22,6.22,0,0,1-2.69-.57A6.08,6.08,0,0,1,94,27h0v8.54Zm9-13.48a6.48,6.48,0,0,0-.38-1.9,4.28,4.28,0,0,0-1-1.52,8.67,8.67,0,0,0-1.35-1.14,5.13,5.13,0,0,0-3.85,0,4,4,0,0,0-1.53,1.14,4,4,0,0,0-1,1.52,5.65,5.65,0,0,0-.39,1.9,6.5,6.5,0,0,0,.39,1.9,4,4,0,0,0,1,1.52,9.51,9.51,0,0,0,1.53,1.14,5,5,0,0,0,3.85,0,2.56,2.56,0,0,0,1.35-1.14,4.28,4.28,0,0,0,1-1.52,7.92,7.92,0,0,0,.42-1.93Z" transform="translate(0 0)"/><path class="a" d="M116.72,19.94a3.09,3.09,0,0,0-1-2.28,4.16,4.16,0,0,0-2.31-.57,7.21,7.21,0,0,0-2.11.38,7.1,7.1,0,0,0-1.73,1.14L108,16.9a11.36,11.36,0,0,1,2.5-1.52,8.13,8.13,0,0,1,3.08-.57,9.18,9.18,0,0,1,2.5.38,2.86,2.86,0,0,1,1.73,1.14,5.17,5.17,0,0,1,1,1.71,6.49,6.49,0,0,1,.38,2.09v7.41a2.76,2.76,0,0,0,.2,1.33h-2.5a6.4,6.4,0,0,1-.2-1.9h0a5.45,5.45,0,0,1-1.92,1.71,6.22,6.22,0,0,1-2.69.57,5.61,5.61,0,0,1-1.73-.19,4,4,0,0,1-1.54-.76,2.56,2.56,0,0,1-1.15-1.3,3.07,3.07,0,0,1-.39-1.9,3.5,3.5,0,0,1,.77-2.47,5,5,0,0,1,2.12-1.33,8.08,8.08,0,0,1,3.07-.57c1.16,0,2.31-.19,3.46-.19v-.6Zm-.57,2.28H114a6,6,0,0,0-1.92.38,4,4,0,0,0-1.54.76,1.73,1.73,0,0,0-.58,1.33,1.38,1.38,0,0,0,.2.95c.19.19.38.57.57.57a1.54,1.54,0,0,0,1,.38c.39,0,.58.19,1,.19a3.4,3.4,0,0,0,2.89-1.14,3.7,3.7,0,0,0,1-2.85V22h-.39Z" transform="translate(0 0)"/><path class="a" d="M130.18,18.61a2.59,2.59,0,0,0-1.34-1.14,3.22,3.22,0,0,0-1.92-.38,1.83,1.83,0,0,0-1,.19,1,1,0,0,0-.76.38l-.58.57a1.13,1.13,0,0,0-.19.76,1.4,1.4,0,0,0,.77,1.33,15.49,15.49,0,0,0,2.3.76,17.5,17.5,0,0,1,1.73.57,5.82,5.82,0,0,1,1.54.76,4.94,4.94,0,0,1,1,1.14,3.64,3.64,0,0,1,.39,1.52,6.78,6.78,0,0,1-.39,2.09,8.08,8.08,0,0,1-1.15,1.33,6.85,6.85,0,0,1-1.73.76,7.55,7.55,0,0,1-2.12.19,8.93,8.93,0,0,1-3.07-.57,5.85,5.85,0,0,1-2.5-1.9l1.92-1.71a5.18,5.18,0,0,0,1.54,1.33,3.94,3.94,0,0,0,2.11.57,1.45,1.45,0,0,0,1-.19c.39,0,.58-.19,1-.38l.58-.57a1.37,1.37,0,0,0,.19-.95,1.43,1.43,0,0,0-1-1.33,13.44,13.44,0,0,0-2.69-.95c-.39-.19-1-.19-1.35-.38a4.94,4.94,0,0,1-1.34-.76c-.39-.38-.77-.57-1-1.14a3.64,3.64,0,0,1-.39-1.52,5.65,5.65,0,0,1,.39-1.9,8.08,8.08,0,0,1,1.15-1.33,10.6,10.6,0,0,1,1.92-.57,7,7,0,0,1,1.93-.19,7.9,7.9,0,0,1,2.88.57,4.11,4.11,0,0,1,2.12,1.52Z" transform="translate(0 0)"/><path class="a" d="M142.3,17.47h-3.66v7a3.85,3.85,0,0,0,.39,1.7,1.86,1.86,0,0,0,1.54.57h.77c.38,0,.57-.19.76-.19v2.28A2.39,2.39,0,0,1,141,29c-.38,0-.77.19-1.15.19a3.4,3.4,0,0,1-2.89-1.14,4.1,4.1,0,0,1-1-3.23v-7.4h-2.69V15.2H136V11.39h2.69V15.2h3.66Z" transform="translate(0 0)"/><path class="b" d="M123.84,35a4.08,4.08,0,0,0-2.31-.57,4.13,4.13,0,0,0-4,4.9A5,5,0,0,0,119.22,42a4.16,4.16,0,0,0,2.31.57,4.34,4.34,0,0,0,3.46-1.9,4,4,0,0,0-1-5.57l0,0Z" transform="translate(0 0)"/><path class="b" d="M136.34,38a3.39,3.39,0,1,0-3.9,5.54l.24.16a3.24,3.24,0,0,0,1.93.57,3.37,3.37,0,0,0,2.88-1.52,3.28,3.28,0,0,0,.58-2.66A6,6,0,0,0,136.34,38Z" transform="translate(0 0)"/><path class="b" d="M146.91,33.43a3.06,3.06,0,0,0-4.26.75,2.13,2.13,0,0,0-.16.25,3.52,3.52,0,0,0-.38,2.46A4.89,4.89,0,0,0,143.45,39a3.08,3.08,0,0,0,4.28-.76c.05-.07.1-.16.15-.24a3.57,3.57,0,0,0,.38-2.46A2.32,2.32,0,0,0,146.91,33.43Z" transform="translate(0 0)"/><path class="b" d="M154,25.83a3.23,3.23,0,0,0-1.35-1.9,2.11,2.11,0,0,0-1.54-.38,3.27,3.27,0,0,0-2.5,1.33,2.75,2.75,0,0,0-.38,2.09,3.17,3.17,0,0,0,1.34,1.9,2.11,2.11,0,0,0,1.54.38,3.34,3.34,0,0,0,2.5-1.33A3.69,3.69,0,0,0,154,25.83Z" transform="translate(0 0)"/><path class="b" d="M149,17.47a2.07,2.07,0,0,0,1.54.38,2.68,2.68,0,0,0,2.31-1.33,2.88,2.88,0,0,0-.77-3.8,2.11,2.11,0,0,0-1.54-.38,2.7,2.7,0,0,0-2.31,1.33A2.88,2.88,0,0,0,149,17.47Z" transform="translate(0 0)"/><path class="b" d="M142.68,8.55a3.93,3.93,0,0,0,1.54.38,2.8,2.8,0,0,0,2.31-1.14,2.34,2.34,0,0,0,.39-1.9,2.81,2.81,0,0,0-1.16-1.71,3.57,3.57,0,0,0-1.54-.38,2.74,2.74,0,0,0-2.31,1.14,2.37,2.37,0,0,0,.36,3.33h0A3.51,3.51,0,0,0,142.68,8.55Z" transform="translate(0 0)"/><path class="b" d="M133.07,4.18a2.77,2.77,0,0,0,1.34.38,2.15,2.15,0,0,0,1.93-1.14,2,2,0,0,0,.19-1.52,4.28,4.28,0,0,0-1-1.52A2.88,2.88,0,0,0,134.22,0a2.12,2.12,0,0,0-1.92,1.14,2,2,0,0,0,.37,2.8l.08.06A2,2,0,0,0,133.07,4.18Z" transform="translate(0 0)"/><path class="b" d="M125.38,1.71a2.79,2.79,0,0,0-1.16-.38,2.34,2.34,0,0,0-1.92.95A2.8,2.8,0,0,0,121.92,4c.19.57.38,1.14,1,1.33A2.78,2.78,0,0,0,124,5.7a2.4,2.4,0,0,0,1.92-1,2,2,0,0,0-.25-2.82l0,0A1.35,1.35,0,0,0,125.38,1.71Z" transform="translate(0 0)"/><path class="b" d="M118.26,10.26a1.86,1.86,0,0,0-.46-2.59h0l-.12-.07a2,2,0,0,0-1-.38,1.69,1.69,0,0,0-1.53,1A1.68,1.68,0,0,0,115,9.5a1.75,1.75,0,0,0,.77,1.14,2.06,2.06,0,0,0,1,.38A2.44,2.44,0,0,0,118.26,10.26Z" transform="translate(0 0)"/></svg>