<svg xmlns="http://www.w3.org/2000/svg" width="111.47" height="26.27" viewBox="0 0 111.47 26.27"><defs><style>.a{fill:#262122;}.b{fill:#f8022e;}</style></defs><title>rubicon</title><path class="a" d="M30.73,11.2V4.56c0-.29.05-.4.37-.38a15.69,15.69,0,0,0,1.68,0c.37,0,.41.12.41.43v4c0,.37.11.44.46.43h5.56a8.47,8.47,0,1,1-8.35,9.81,7.72,7.72,0,0,1-.1-1.18Zm2.45,3.7v2.56a6.13,6.13,0,1,0,6.4-6c-2-.06-4.06,0-6.08,0-.28,0-.33.1-.33.34v3.1Z" transform="translate(0.01 0)"/><path class="a" d="M83.59,25.92a8.5,8.5,0,0,1-.2-17h.26a8.5,8.5,0,1,1,.2,17Zm0-14.5a6.06,6.06,0,1,0,6.08,6.12A6.19,6.19,0,0,0,83.59,11.42Z" transform="translate(0.01 0)"/><path class="a" d="M71.86,15.08c-.9.24-1.36-.18-1.84-.94a5.93,5.93,0,1,0,.35,6.1.63.63,0,0,1,.69-.39h1.72c.32,0,.44,0,.3.38a8.22,8.22,0,0,1-6.39,5.48A8.41,8.41,0,1,1,73,14.59c.18.49.18.49-.36.49Z" transform="translate(0.01 0)"/><path class="a" d="M111.46,21v4.52c0,.31,0,.45-.41.42a15.69,15.69,0,0,0-1.68,0c-.34,0-.4-.1-.4-.41V17.1a6,6,0,0,0-4.46-5.78A6.09,6.09,0,0,0,97,15.59a5.85,5.85,0,0,0-.22,1.5v8.44c0,.34-.09.43-.43.41H94.66c-.23,0-.31,0-.31-.3v-8.9a8.56,8.56,0,0,1,16.92-1.26,6,6,0,0,1,.15,1.4C111.46,18.24,111.46,19.62,111.46,21Z" transform="translate(0.01 0)"/><path class="a" d="M28.05,13.87V17.7a8.49,8.49,0,0,1-16.93,1c-.13-1.43,0-2.86-.06-4.29V9.51c0-.41.12-.5.5-.47A13.2,13.2,0,0,0,13.1,9c.32,0,.37.09.37.38v8.35a6,6,0,0,0,12.09,0V9.43c0-.34.07-.46.44-.44a15,15,0,0,0,1.64,0c.32,0,.43.06.43.41C28,10.92,28.05,12.4,28.05,13.87Z" transform="translate(0.01 0)"/><path class="a" d="M0,21.18V17.43A8.45,8.45,0,0,1,8.11,9c.33,0,.46.05.43.4a17,17,0,0,0,0,1.75c0,.23-.06.32-.31.33a6,6,0,0,0-5.8,6.14V25.4c0,.3,0,.43-.39.41a16.64,16.64,0,0,0-1.73,0c-.26,0-.33-.07-.32-.33C0,24.07,0,22.62,0,21.18Z" transform="translate(0.01 0)"/><path class="a" d="M53.39,17.44v8c0,.34-.09.43-.43.42H51.28c-.26,0-.36-.06-.34-.33s0-.6,0-.9V9.42c0-.4.11-.51.5-.48A13.56,13.56,0,0,0,53,9c.35,0,.45.07.45.43C53.38,12.1,53.39,14.77,53.39,17.44Z" transform="translate(0.01 0)"/><path class="b" d="M111.46,2.78a2.75,2.75,0,0,1-2.74,2.76h-.08A2.77,2.77,0,0,1,108.52,0h.15a2.72,2.72,0,0,1,2.79,2.64Z" transform="translate(0.01 0)"/><path class="b" d="M100.89,0a2.77,2.77,0,0,1,2.79,2.75h0A2.81,2.81,0,1,1,100.81,0ZM99.53,2.78a1.34,1.34,0,1,0,1.35-1.33h0A1.35,1.35,0,0,0,99.53,2.78Z" transform="translate(0.01 0)"/><path class="b" d="M93.07,0a2.77,2.77,0,1,1-2.79,2.77A2.77,2.77,0,0,1,93.07,0Zm0,5.05a2.24,2.24,0,1,0-.07,0Z" transform="translate(0.01 0)"/></svg>