<svg xmlns="http://www.w3.org/2000/svg" viewBox="0 0 111.471 26.189"><defs><style>.a{fill:#262122;}.b{fill:#f8022e;}</style></defs><g transform="translate(0 0)"><path class="a" d="M356.109,56c0-2.215.009-4.43-.009-6.645,0-.29.052-.4.371-.383a15.829,15.829,0,0,0,1.682,0c.371-.026.414.128.405.434-.017,1.32.009,2.641-.017,3.961-.009.366.112.443.457.434,1.854-.017,3.709-.009,5.564-.009a8.472,8.472,0,1,1-8.35,9.814,7.848,7.848,0,0,1-.1-1.184Zm2.45,3.7v2.556a6.135,6.135,0,1,0,6.4-6.023c-2.027-.06-4.054-.009-6.081-.026-.276,0-.328.094-.328.341C358.567,57.6,358.558,58.648,358.558,59.7Z" transform="translate(-325.383 -44.796)"/><path class="a" d="M878.64,122.07a8.486,8.486,0,1,1,.052-16.97,8.486,8.486,0,1,1-.052,16.97Zm.035-14.508a6.058,6.058,0,1,0,6.081,6.125A6.2,6.2,0,0,0,878.674,107.562Z" transform="translate(-795.047 -96.146)"/><path class="a" d="M670.551,112.365c-.906.239-1.363-.179-1.846-.937a6.021,6.021,0,0,0-11,3.578,6.04,6.04,0,0,0,11.352,2.522.627.627,0,0,1,.69-.392c.578.026,1.147.017,1.725,0,.319-.008.44.026.3.383A8.242,8.242,0,0,1,665.384,123a8.409,8.409,0,1,1,6.349-11.126c.181.494.181.494-.362.494Z" transform="translate(-598.689 -97.286)"/><path class="a" d="M1111.068,114.528c0,1.508-.009,3.007.009,4.515,0,.315-.052.452-.414.426a13.855,13.855,0,0,0-1.682,0c-.336.017-.4-.1-.4-.409q.013-4.217.009-8.434a5.977,5.977,0,0,0-4.468-5.776,6.083,6.083,0,0,0-7.685,5.768c0,2.811-.009,5.623.009,8.434,0,.341-.095.434-.431.417-.569-.026-1.147-.017-1.725,0-.233.009-.319-.043-.319-.3.017-2.965-.034-5.938.035-8.9a8.565,8.565,0,0,1,16.924-1.261,6.294,6.294,0,0,1,.147,1.4C1111.068,111.776,1111.068,113.156,1111.068,114.528Z" transform="translate(-999.606 -93.536)"/><path class="a" d="M145,110.886v3.834a8.491,8.491,0,0,1-16.924,1c-.129-1.431-.043-2.862-.06-4.294-.017-1.636.009-3.263-.017-4.9-.009-.409.129-.494.5-.469q.776.038,1.553,0c.319-.017.371.094.371.383-.009,2.786-.017,5.563-.009,8.349a6.043,6.043,0,1,0,12.085-.1q.013-4.089-.009-8.178c0-.349.069-.469.44-.443a15.027,15.027,0,0,0,1.639,0c.328-.017.431.06.431.409C144.98,107.938,145,109.412,145,110.886Z" transform="translate(-116.954 -97.017)"/><path class="a" d="M0,118.3v-3.748a8.446,8.446,0,0,1,8.1-8.383c.328-.017.457.043.431.4-.035.579-.017,1.167,0,1.746.009.23-.06.315-.311.332a5.99,5.99,0,0,0-5.8,6.134c0,2.6-.009,5.2.009,7.787,0,.3-.043.426-.388.409a16.641,16.641,0,0,0-1.725,0c-.267.009-.336-.068-.328-.332C.01,121.192,0,119.743,0,118.3Z" transform="translate(0.008 -97.125)"/><path class="a" d="M592.93,113.911c0,2.684-.009,5.367.009,8.051,0,.341-.095.434-.431.417-.561-.026-1.121-.017-1.682,0-.259.009-.362-.06-.345-.332.026-.3.009-.6.009-.895,0-5.069.009-10.138-.009-15.207,0-.4.112-.511.5-.486a11.151,11.151,0,0,0,1.51,0c.354-.026.457.077.457.434C592.922,108.57,592.93,111.245,592.93,113.911Z" transform="translate(-539.545 -96.472)"/><path class="b" d="M1232.807,2.868a2.751,2.751,0,0,1-2.821,2.76A2.765,2.765,0,1,1,1230.012.1,2.721,2.721,0,0,1,1232.807,2.868Z" transform="translate(-1121.344 -0.091)"/><path class="b" d="M1139.629,0a2.781,2.781,0,0,1,2.795,2.752A2.813,2.813,0,1,1,1139.629,0Zm-1.354,2.777a1.337,1.337,0,0,0,2.674,0,1.337,1.337,0,0,0-2.674,0Z" transform="translate(-1038.742 0.001)"/><path class="b" d="M1049.394,0a2.765,2.765,0,1,1-2.795,2.769A2.756,2.756,0,0,1,1049.394,0Zm-.052,5.052a2.324,2.324,0,0,0,2.389-2.241,2.33,2.33,0,0,0-4.658-.119A2.3,2.3,0,0,0,1049.343,5.052Z" transform="translate(-956.322 0)"/></g></svg>